<?xml version="1.0" standalone="no"?>
<!DOCTYPE svg PUBLIC "-//W3C//DTD SVG 20010904//EN"
 "http://www.w3.org/TR/2001/REC-SVG-20010904/DTD/svg10.dtd">
<svg version="1.0" xmlns="http://www.w3.org/2000/svg"
 width="700.000000pt" height="700.000000pt" viewBox="0 0 700.000000 700.000000"
 preserveAspectRatio="xMidYMid meet">
<metadata>
Created by potrace 1.14, written by Peter Selinger 2001-2017
</metadata>
<g transform="translate(0.000000,700.000000) scale(0.100000,-0.100000)"
fill="#000000" stroke="none">
<path d="M3300 6327 c-3 -3 -40 -8 -84 -11 -101 -8 -267 -35 -351 -58 -22 -5
-48 -12 -58 -14 -10 -2 -27 -6 -37 -9 -10 -3 -27 -7 -37 -9 -34 -7 -228 -74
-315 -109 -124 -51 -308 -145 -370 -188 -14 -11 -29 -19 -32 -19 -10 0 -150
-96 -226 -154 -247 -189 -467 -422 -638 -676 -265 -394 -415 -812 -471 -1310
-9 -78 -6 -519 3 -580 3 -19 8 -53 11 -75 20 -153 91 -456 124 -530 5 -11 19
-47 31 -80 65 -183 209 -458 331 -630 146 -208 364 -438 564 -596 393 -310
841 -502 1360 -583 136 -21 554 -29 695 -13 95 11 240 36 315 54 34 8 29 7 75
17 75 17 240 70 350 113 915 360 1584 1183 1749 2153 32 186 35 223 35 475 0
232 -4 308 -24 425 -5 30 -12 71 -15 90 -61 362 -228 767 -453 1095 -178 260
-420 504 -704 712 -155 113 -449 267 -655 342 -100 36 -323 100 -408 116 -53
10 -199 33 -250 40 -59 8 -509 18 -515 12z"/>
</g>
</svg>
