<?xml version="1.0" standalone="no"?>
<!DOCTYPE svg PUBLIC "-//W3C//DTD SVG 20010904//EN"
 "http://www.w3.org/TR/2001/REC-SVG-20010904/DTD/svg10.dtd">
<svg version="1.0" xmlns="http://www.w3.org/2000/svg"
 width="293.000000pt" height="293.000000pt" viewBox="0 0 293.000000 293.000000"
 preserveAspectRatio="xMidYMid meet">
<metadata>
Created by potrace 1.14, written by Peter Selinger 2001-2017
</metadata>
<g transform="translate(0.000000,293.000000) scale(0.100000,-0.100000)"
fill="#000000" stroke="none">
<path d="M1339 2646 c-2 -2 -25 -6 -50 -9 -153 -18 -345 -94 -501 -199 -89
-60 -237 -209 -307 -312 -69 -100 -161 -317 -176 -416 -2 -14 -8 -50 -14 -80
-15 -91 -7 -313 17 -416 78 -344 291 -626 602 -796 96 -52 267 -110 375 -126
64 -9 307 -8 365 2 249 42 469 155 645 331 99 99 102 103 159 189 82 124 145
280 177 436 18 84 17 332 0 430 -25 143 -91 303 -180 440 -48 73 -194 233
-256 280 -143 108 -317 188 -490 226 -61 14 -355 30 -366 20z"/>
</g>
</svg>
