<svg width="2163" height="373" viewBox="0 0 2163 373" fill="none" xmlns="http://www.w3.org/2000/svg">
<g filter="url(#filter0_d_29_18)">
<path d="M4 0H2109C2136.61 0 2159 22.3858 2159 50V315C2159 342.614 2136.61 365 2109 365H4V0Z" fill="#B1B2B7"/>
<path d="M4.5 0.5H2109C2136.34 0.5 2158.5 22.6619 2158.5 50V315C2158.5 342.338 2136.34 364.5 2109 364.5H4.5V0.5Z" stroke="black"/>
</g>
<path d="M2012 55H1876C1842.86 55 1816 81.8629 1816 115V251C1816 284.137 1842.86 311 1876 311H2012C2045.14 311 2072 284.137 2072 251V115C2072 81.8629 2045.14 55 2012 55Z" fill="url(#paint0_radial_29_18)"/>
<path d="M2012 55H1876C1842.86 55 1816 81.8629 1816 115V251C1816 284.137 1842.86 311 1876 311H2012C2045.14 311 2072 284.137 2072 251V115C2072 81.8629 2045.14 55 2012 55Z" fill="url(#paint1_radial_29_18)"/>
<path d="M1944.01 83C1916.85 83 1913.44 83.119 1902.78 83.604C1892.13 84.092 1884.86 85.777 1878.51 88.25C1871.93 90.804 1866.35 94.221 1860.79 99.781C1855.23 105.34 1851.81 110.919 1849.25 117.494C1846.77 123.854 1845.08 131.124 1844.6 141.765C1844.12 152.432 1844 155.842 1844 183.001C1844 210.16 1844.12 213.558 1844.6 224.224C1845.09 234.87 1846.78 242.137 1849.25 248.495C1851.81 255.073 1855.22 260.652 1860.78 266.21C1866.34 271.773 1871.92 275.198 1878.49 277.752C1884.85 280.225 1892.12 281.91 1902.77 282.398C1913.43 282.883 1916.84 283.002 1944 283.002C1971.16 283.002 1974.56 282.883 1985.22 282.398C1995.87 281.91 2003.14 280.225 2009.51 277.752C2016.08 275.198 2021.65 271.773 2027.21 266.21C2032.77 260.652 2036.19 255.073 2038.75 248.498C2041.21 242.137 2042.9 234.868 2043.4 224.226C2043.88 213.56 2044 210.16 2044 183.001C2044 155.842 2043.88 152.434 2043.4 141.767C2042.9 131.121 2041.21 123.855 2038.75 117.497C2036.19 110.919 2032.77 105.34 2027.21 99.781C2021.65 94.219 2016.08 90.802 2009.5 88.251C2003.12 85.777 1995.85 84.091 1985.21 83.604C1974.54 83.119 1971.14 83 1943.98 83H1944.01ZM1935.04 101.021C1937.7 101.017 1940.67 101.021 1944.01 101.021C1970.71 101.021 1973.87 101.117 1984.42 101.596C1994.17 102.042 1999.46 103.671 2002.99 105.04C2007.65 106.852 2010.98 109.019 2014.48 112.52C2017.98 116.02 2020.14 119.353 2021.96 124.02C2023.33 127.54 2024.96 132.832 2025.4 142.582C2025.88 153.124 2025.99 156.29 2025.99 182.978C2025.99 209.666 2025.88 212.833 2025.4 223.374C2024.96 233.124 2023.33 238.416 2021.96 241.937C2020.15 246.604 2017.98 249.927 2014.48 253.425C2010.98 256.925 2007.65 259.091 2002.99 260.904C1999.46 262.279 1994.17 263.904 1984.42 264.35C1973.88 264.829 1970.71 264.933 1944.01 264.933C1917.31 264.933 1914.14 264.829 1903.6 264.35C1893.85 263.9 1888.56 262.271 1885.03 260.902C1880.36 259.089 1877.03 256.923 1873.53 253.423C1870.03 249.923 1867.86 246.598 1866.05 241.929C1864.68 238.408 1863.05 233.116 1862.6 223.366C1862.12 212.824 1862.03 209.658 1862.03 182.953C1862.03 156.249 1862.12 153.099 1862.6 142.557C1863.05 132.807 1864.68 127.515 1866.05 123.99C1867.86 119.323 1870.03 115.99 1873.53 112.49C1877.03 108.99 1880.36 106.823 1885.03 105.007C1888.56 103.632 1893.85 102.007 1903.6 101.559C1912.83 101.142 1916.4 101.017 1935.04 100.996V101.021ZM1997.39 117.625C1990.76 117.625 1985.39 122.995 1985.39 129.621C1985.39 136.246 1990.76 141.621 1997.39 141.621C2004.01 141.621 2009.39 136.246 2009.39 129.621C2009.39 122.996 2004.01 117.621 1997.39 117.621V117.625ZM1944.01 131.646C1915.65 131.646 1892.65 154.64 1892.65 183.001C1892.65 211.362 1915.65 234.345 1944.01 234.345C1972.37 234.345 1995.36 211.362 1995.36 183.001C1995.36 154.641 1972.37 131.646 1944.01 131.646H1944.01ZM1944.01 149.667C1962.42 149.667 1977.34 164.59 1977.34 183.001C1977.34 201.41 1962.42 216.335 1944.01 216.335C1925.6 216.335 1910.68 201.41 1910.68 183.001C1910.68 164.59 1925.6 149.667 1944.01 149.667Z" fill="white"/>
<path d="M815.856 131.4V221H807.536V131.4H815.856ZM807.92 211.656V221H797.68V219.72C797.68 219.72 797.936 219.72 798.448 219.72C799.045 219.72 799.344 219.72 799.344 219.72C801.563 219.72 803.44 218.952 804.976 217.416C806.597 215.795 807.451 213.875 807.536 211.656H807.92ZM807.92 140.744H807.536C807.451 138.525 806.597 136.648 804.976 135.112C803.44 133.491 801.563 132.68 799.344 132.68C799.344 132.68 799.045 132.68 798.448 132.68C797.936 132.68 797.68 132.68 797.68 132.68V131.4H807.92V140.744ZM815.472 211.656H815.856C815.941 213.875 816.752 215.795 818.288 217.416C819.909 218.952 821.829 219.72 824.048 219.72C824.048 219.72 824.304 219.72 824.816 219.72C825.328 219.72 825.627 219.72 825.712 219.72V221H815.472V211.656ZM815.472 140.744V131.4H825.712V132.68C825.627 132.68 825.328 132.68 824.816 132.68C824.304 132.68 824.048 132.68 824.048 132.68C821.829 132.68 819.909 133.491 818.288 135.112C816.752 136.648 815.941 138.525 815.856 140.744H815.472ZM847.074 142.28L917.986 209.096L919.266 222.792L848.354 155.592L847.074 142.28ZM847.33 213.064V221H837.73V219.72C837.73 219.72 838.071 219.72 838.754 219.72C839.522 219.72 839.906 219.72 839.906 219.72C841.869 219.72 843.533 219.08 844.898 217.8C846.263 216.52 846.946 214.941 846.946 213.064H847.33ZM852.706 213.064C852.706 214.941 853.389 216.52 854.754 217.8C856.205 219.08 857.869 219.72 859.746 219.72C859.746 219.72 860.087 219.72 860.77 219.72C861.538 219.72 861.922 219.72 861.922 219.72V221H852.322V213.064H852.706ZM847.074 142.28L852.578 149.448L852.706 221H846.946V158.28C846.946 153.928 846.733 150.173 846.306 147.016C845.965 143.859 845.794 142.28 845.794 142.28H847.074ZM919.266 144.2V206.408C919.266 209.139 919.351 211.784 919.522 214.344C919.693 216.819 919.863 218.867 920.034 220.488C920.29 222.024 920.418 222.792 920.418 222.792H919.266L913.634 216.008V144.2H919.266ZM918.882 152.136V144.2H928.482V145.48C928.482 145.48 928.098 145.48 927.33 145.48C926.647 145.48 926.306 145.48 926.306 145.48C924.429 145.48 922.765 146.12 921.314 147.4C919.949 148.68 919.266 150.259 919.266 152.136H918.882ZM913.634 152.136C913.549 150.259 912.823 148.68 911.458 147.4C910.093 146.12 908.429 145.48 906.466 145.48C906.466 145.48 906.082 145.48 905.314 145.48C904.631 145.48 904.29 145.48 904.29 145.48V144.2H913.89V152.136H913.634ZM962.952 142.408C965.341 142.408 967.432 142.493 969.224 142.664C971.016 142.835 972.552 143.048 973.832 143.304C975.197 143.475 976.349 143.731 977.288 144.072C978.312 144.328 979.208 144.584 979.976 144.84L980.104 157.512H978.568C978.568 154.013 977.373 151.283 974.984 149.32C972.595 147.272 968.883 146.248 963.848 146.248C959.581 146.248 955.912 147.443 952.84 149.832C949.853 152.136 948.403 154.995 948.488 158.408C948.488 159.517 948.616 160.669 948.872 161.864C949.213 162.973 949.725 164.083 950.408 165.192C951.176 166.301 952.2 167.411 953.48 168.52L979.336 188.488C981.299 190.109 982.749 192.2 983.688 194.76C984.627 197.235 985.139 199.709 985.224 202.184C985.309 205.939 984.328 209.395 982.28 212.552C980.232 215.709 977.459 218.227 973.96 220.104C970.547 221.896 966.749 222.792 962.568 222.792C960.093 222.792 957.405 222.579 954.504 222.152C951.688 221.725 949.043 221.085 946.568 220.232C944.093 219.293 942.045 218.141 940.424 216.776C940.168 215.581 940.04 214.088 940.04 212.296C940.04 210.419 940.168 208.456 940.424 206.408C940.765 204.36 941.192 202.525 941.704 200.904H943.24C942.899 204.744 943.453 208.029 944.904 210.76C946.355 213.491 948.488 215.581 951.304 217.032C954.12 218.397 957.405 219.037 961.16 218.952C966.451 218.781 970.589 217.459 973.576 214.984C976.648 212.424 978.184 209.053 978.184 204.872C978.184 202.824 977.8 200.989 977.032 199.368C976.349 197.661 975.197 196.083 973.576 194.632L947.976 174.92C945.587 172.872 943.965 170.611 943.112 168.136C942.259 165.661 941.832 163.315 941.832 161.096C941.832 157.597 942.771 154.44 944.648 151.624C946.525 148.808 949.043 146.589 952.2 144.968C955.443 143.261 959.027 142.408 962.952 142.408ZM979.848 143.56L979.976 145.864H970.888V143.56H979.848ZM1033.34 144.584V221H1025.02V144.584H1033.34ZM1064.32 144.072V147.912H994.045V144.072H1064.32ZM1064.32 147.656V156.488H1062.91V154.44C1062.91 152.648 1062.31 151.155 1061.12 149.96C1060.01 148.68 1058.47 147.997 1056.51 147.912V147.656H1064.32ZM1064.32 142.024V145.352L1049.98 144.072C1051.69 144.072 1053.48 143.987 1055.36 143.816C1057.32 143.56 1059.11 143.261 1060.73 142.92C1062.35 142.579 1063.55 142.28 1064.32 142.024ZM1025.28 212.808V221H1015.93V219.72C1016.02 219.72 1016.27 219.72 1016.7 219.72C1017.21 219.72 1017.47 219.72 1017.47 219.72C1019.52 219.72 1021.27 219.037 1022.72 217.672C1024.17 216.307 1024.94 214.685 1025.02 212.808H1025.28ZM1032.96 212.808H1033.34C1033.43 214.685 1034.19 216.307 1035.65 217.672C1037.1 219.037 1038.85 219.72 1040.89 219.72C1040.89 219.72 1041.11 219.72 1041.53 219.72C1042.05 219.72 1042.3 219.72 1042.3 219.72V221H1032.96V212.808ZM1001.85 147.656V147.912C999.89 147.997 998.312 148.68 997.117 149.96C996.008 151.155 995.453 152.648 995.453 154.44V156.488H994.045V147.656H1001.85ZM994.045 142.024C994.813 142.28 995.965 142.579 997.501 142.92C999.122 143.261 1000.91 143.56 1002.88 143.816C1004.84 143.987 1006.67 144.072 1008.38 144.072L994.045 145.352V142.024ZM1100.13 142.408L1135.33 220.232H1125.22L1097.96 153.8L1100.13 142.408ZM1075.43 211.656C1074.49 214.216 1074.62 216.221 1075.81 217.672C1077.01 219.037 1078.37 219.72 1079.91 219.72H1080.93V221H1056.48V219.72C1056.48 219.72 1056.66 219.72 1057 219.72C1057.34 219.72 1057.51 219.72 1057.51 219.72C1059.3 219.72 1061.14 219.123 1063.01 217.928C1064.89 216.648 1066.51 214.557 1067.88 211.656H1075.43ZM1100.13 142.408L1101.03 151.24L1071.72 220.616H1063.65L1093.99 155.592C1093.99 155.592 1094.2 155.08 1094.63 154.056C1095.14 153.032 1095.7 151.795 1096.29 150.344C1096.98 148.808 1097.57 147.315 1098.09 145.864C1098.6 144.413 1098.9 143.261 1098.98 142.408H1100.13ZM1115.24 191.176V195.016H1081.32V191.176H1115.24ZM1121.76 211.656H1131.49C1132.77 214.557 1134.35 216.648 1136.23 217.928C1138.11 219.123 1139.9 219.72 1141.61 219.72C1141.61 219.72 1141.78 219.72 1142.12 219.72C1142.46 219.72 1142.63 219.72 1142.63 219.72V221H1116.39V219.72H1117.41C1118.86 219.72 1120.19 219.037 1121.38 217.672C1122.58 216.221 1122.7 214.216 1121.76 211.656ZM1188.51 142.408C1192.43 142.408 1196.1 142.707 1199.52 143.304C1203.02 143.816 1206.3 144.669 1209.37 145.864C1212.53 146.973 1215.52 148.424 1218.33 150.216L1221.15 168.264H1220C1218.8 163.229 1216.84 159.091 1214.11 155.848C1211.46 152.605 1208.01 150.216 1203.74 148.68C1199.47 147.059 1194.35 146.248 1188.38 146.248C1181.9 146.248 1176.18 147.741 1171.23 150.728C1166.37 153.629 1162.57 157.811 1159.84 163.272C1157.11 168.648 1155.74 175.091 1155.74 182.6C1155.74 190.024 1157.11 196.467 1159.84 201.928C1162.57 207.389 1166.41 211.613 1171.36 214.6C1176.31 217.501 1182.02 218.952 1188.51 218.952C1192.09 218.952 1195.51 218.568 1198.75 217.8C1201.99 217.032 1205.11 215.837 1208.09 214.216C1211.17 212.509 1214.02 210.376 1216.67 207.816L1216.8 190.792C1216.88 189.171 1216.37 187.933 1215.26 187.08C1214.24 186.227 1212.79 185.8 1210.91 185.8H1209.12V184.52H1232.54V185.8H1230.75C1226.91 185.8 1224.99 187.507 1224.99 190.92V206.28C1223.03 208.755 1220.34 211.272 1216.93 213.832C1213.51 216.392 1209.42 218.525 1204.64 220.232C1199.94 221.939 1194.57 222.792 1188.51 222.792C1180.06 222.707 1172.68 221.043 1166.37 217.8C1160.14 214.557 1155.27 209.949 1151.77 203.976C1148.27 198.003 1146.53 190.877 1146.53 182.6C1146.53 174.237 1148.27 167.069 1151.77 161.096C1155.27 155.123 1160.18 150.515 1166.49 147.272C1172.81 144.029 1180.15 142.408 1188.51 142.408ZM1255.91 144.2H1272.42C1276.43 144.2 1280.01 144.669 1283.17 145.608C1286.41 146.547 1289.14 147.912 1291.36 149.704C1293.67 151.496 1295.42 153.672 1296.61 156.232C1297.8 158.792 1298.4 161.693 1298.4 164.936C1298.4 168.52 1297.55 171.848 1295.84 174.92C1294.14 177.992 1291.75 180.509 1288.67 182.472C1285.69 184.435 1282.27 185.629 1278.43 186.056C1279.88 186.653 1281.55 187.976 1283.43 190.024C1285.39 192.072 1287.05 194.077 1288.42 196.04C1288.42 196.04 1288.97 196.808 1290.08 198.344C1291.19 199.795 1292.6 201.629 1294.31 203.848C1296.1 205.981 1297.85 208.029 1299.55 209.992C1301.35 211.955 1302.97 213.661 1304.42 215.112C1305.95 216.563 1307.58 217.715 1309.28 218.568C1311.07 219.336 1313.12 219.72 1315.43 219.72V221H1311.46C1306.76 221 1302.88 220.403 1299.81 219.208C1296.82 218.013 1294.39 216.563 1292.51 214.856C1290.64 213.064 1289.02 211.357 1287.65 209.736C1287.31 209.309 1286.5 208.243 1285.22 206.536C1284.02 204.744 1282.7 202.824 1281.25 200.776C1279.8 198.728 1278.48 196.893 1277.28 195.272C1276.09 193.565 1275.36 192.541 1275.11 192.2C1273.4 189.981 1271.44 188.019 1269.22 186.312C1267 184.52 1264.65 183.624 1262.18 183.624V182.344C1262.18 182.344 1262.86 182.387 1264.23 182.472C1265.59 182.472 1267.34 182.429 1269.47 182.344C1271.86 182.259 1274.25 182.088 1276.64 181.832C1279.03 181.491 1281.25 180.552 1283.3 179.016C1285.43 177.48 1287.1 174.92 1288.29 171.336C1288.63 170.397 1288.89 169.288 1289.06 168.008C1289.23 166.728 1289.27 165.405 1289.19 164.04C1289.1 161.651 1288.63 159.517 1287.78 157.64C1287.01 155.763 1285.86 154.141 1284.32 152.776C1282.87 151.411 1281.12 150.344 1279.07 149.576C1277.03 148.808 1274.72 148.381 1272.16 148.296C1268.15 148.125 1264.65 148.083 1261.67 148.168C1258.68 148.253 1257.19 148.253 1257.19 148.168C1257.19 148.083 1257.06 147.741 1256.8 147.144C1256.63 146.461 1256.42 145.821 1256.16 145.224C1255.99 144.541 1255.91 144.2 1255.91 144.2ZM1257.44 144.2V221H1249.25V144.2H1257.44ZM1249.63 212.808L1251.17 221H1240.29V219.72C1240.29 219.72 1240.59 219.72 1241.19 219.72C1241.78 219.72 1242.08 219.72 1242.08 219.72C1244.13 219.72 1245.84 219.037 1247.2 217.672C1248.57 216.307 1249.29 214.685 1249.38 212.808H1249.63ZM1249.63 152.264H1249.38C1249.29 150.301 1248.57 148.68 1247.2 147.4C1245.84 146.12 1244.13 145.48 1242.08 145.48C1242.08 145.48 1241.78 145.48 1241.19 145.48C1240.59 145.48 1240.29 145.48 1240.29 145.48V144.2H1251.17L1249.63 152.264ZM1257.06 212.808H1257.44C1257.53 214.685 1258.25 216.307 1259.62 217.672C1260.98 219.037 1262.69 219.72 1264.74 219.72C1264.74 219.72 1264.99 219.72 1265.51 219.72C1266.1 219.72 1266.4 219.72 1266.4 219.72L1266.53 221H1255.52L1257.06 212.808ZM1356.51 142.408L1391.71 220.232H1381.6L1354.33 153.8L1356.51 142.408ZM1331.8 211.656C1330.87 214.216 1330.99 216.221 1332.19 217.672C1333.38 219.037 1334.75 219.72 1336.28 219.72H1337.31V221H1312.86V219.72C1312.86 219.72 1313.03 219.72 1313.37 219.72C1313.71 219.72 1313.88 219.72 1313.88 219.72C1315.68 219.72 1317.51 219.123 1319.39 217.928C1321.27 216.648 1322.89 214.557 1324.25 211.656H1331.8ZM1356.51 142.408L1357.4 151.24L1328.09 220.616H1320.03L1350.36 155.592C1350.36 155.592 1350.58 155.08 1351 154.056C1351.52 153.032 1352.07 151.795 1352.67 150.344C1353.35 148.808 1353.95 147.315 1354.46 145.864C1354.97 144.413 1355.27 143.261 1355.36 142.408H1356.51ZM1371.61 191.176V195.016H1337.69V191.176H1371.61ZM1378.14 211.656H1387.87C1389.15 214.557 1390.73 216.648 1392.6 217.928C1394.48 219.123 1396.27 219.72 1397.98 219.72C1397.98 219.72 1398.15 219.72 1398.49 219.72C1398.83 219.72 1399 219.72 1399 219.72V221H1372.76V219.72H1373.79C1375.24 219.72 1376.56 219.037 1377.76 217.672C1378.95 216.221 1379.08 214.216 1378.14 211.656ZM1487.72 142.408L1488.87 150.728L1458.92 209.736C1458.92 209.736 1458.58 210.461 1457.9 211.912C1457.3 213.363 1456.66 215.112 1455.98 217.16C1455.29 219.123 1454.78 221 1454.44 222.792H1453.16L1451.37 214.728L1487.72 142.408ZM1412.71 212.424V221H1399.4V219.72C1399.4 219.72 1399.7 219.72 1400.3 219.72C1400.98 219.72 1401.32 219.72 1401.32 219.72C1403.54 219.72 1405.46 219.08 1407.08 217.8C1408.79 216.52 1409.77 214.728 1410.02 212.424H1412.71ZM1416.55 214.344C1416.47 215.624 1416.76 216.861 1417.45 218.056C1418.13 219.165 1419.41 219.763 1421.29 219.848H1423.08V221H1415.78V214.344H1416.55ZM1420.01 142.408H1421.29L1423.85 149.96L1415.91 221H1408.87L1420.01 142.408ZM1421.29 142.408L1456.1 209.352L1453.16 222.792L1418.86 156.488L1421.29 142.408ZM1488.87 142.408L1500.39 221H1490.66L1482.34 156.616L1487.72 142.408H1488.87ZM1496.55 212.424H1499.11C1499.45 214.728 1500.48 216.52 1502.18 217.8C1503.89 219.08 1505.81 219.72 1507.94 219.72C1507.94 219.72 1508.24 219.72 1508.84 219.72C1509.52 219.72 1509.86 219.72 1509.86 219.72V221H1496.55V212.424ZM1489.77 214.344H1490.66V221H1483.24V219.848H1485.16C1487.12 219.763 1488.4 219.123 1489 217.928C1489.68 216.733 1489.94 215.539 1489.77 214.344Z" fill="black"/>
<defs>
<filter id="filter0_d_29_18" x="0" y="0" width="2163" height="373" filterUnits="userSpaceOnUse" color-interpolation-filters="sRGB">
<feFlood flood-opacity="0" result="BackgroundImageFix"/>
<feColorMatrix in="SourceAlpha" type="matrix" values="0 0 0 0 0 0 0 0 0 0 0 0 0 0 0 0 0 0 127 0" result="hardAlpha"/>
<feOffset dy="4"/>
<feGaussianBlur stdDeviation="2"/>
<feComposite in2="hardAlpha" operator="out"/>
<feColorMatrix type="matrix" values="0 0 0 0 0 0 0 0 0 0 0 0 0 0 0 0 0 0 0.25 0"/>
<feBlend mode="normal" in2="BackgroundImageFix" result="effect1_dropShadow_29_18"/>
<feBlend mode="normal" in="SourceGraphic" in2="effect1_dropShadow_29_18" result="shape"/>
</filter>
<radialGradient id="paint0_radial_29_18" cx="0" cy="0" r="1" gradientUnits="userSpaceOnUse" gradientTransform="translate(1884 330.717) rotate(-90) scale(253.715 235.975)">
<stop stop-color="#FFDD55"/>
<stop offset="0.1" stop-color="#FFDD55"/>
<stop offset="0.5" stop-color="#FF543E"/>
<stop offset="1" stop-color="#C837AB"/>
</radialGradient>
<radialGradient id="paint1_radial_29_18" cx="0" cy="0" r="1" gradientUnits="userSpaceOnUse" gradientTransform="translate(1773.12 73.441) rotate(78.681) scale(113.412 467.488)">
<stop stop-color="#3771C8"/>
<stop offset="0.128" stop-color="#3771C8"/>
<stop offset="1" stop-color="#6600FF" stop-opacity="0"/>
</radialGradient>
</defs>
</svg>
