<svg width="2163" height="373" viewBox="0 0 2163 373" fill="none" xmlns="http://www.w3.org/2000/svg">
<g filter="url(#filter0_d_29_17)">
<path d="M4 0H2109C2136.61 0 2159 22.3858 2159 50V315C2159 342.614 2136.61 365 2109 365H4V0Z" fill="#B1B2B7"/>
<path d="M4.5 0.5H2109C2136.34 0.5 2158.5 22.6619 2158.5 50V315C2158.5 342.338 2136.34 364.5 2109 364.5H4.5V0.5Z" stroke="black"/>
</g>
<path d="M1821.46 181.456C1821.46 203.133 1827.12 224.299 1837.89 242.955L1820.43 306.697L1885.66 289.593C1903.71 299.415 1923.92 304.562 1944.46 304.563H1944.52C2012.33 304.563 2067.54 249.38 2067.57 181.553C2067.58 148.686 2054.79 117.78 2031.56 94.528C2008.33 71.278 1977.43 58.467 1944.51 58.452C1876.69 58.452 1821.49 113.632 1821.46 181.456" fill="url(#paint0_linear_29_17)"/>
<path d="M1817.07 181.416C1817.06 203.873 1822.93 225.796 1834.08 245.12L1816 311.147L1883.57 293.43C1902.19 303.581 1923.15 308.933 1944.48 308.941H1944.54C2014.78 308.941 2071.97 251.773 2072 181.518C2072.01 147.47 2058.76 115.453 2034.7 91.368C2010.63 67.286 1978.63 54.014 1944.54 54C1874.28 54 1817.1 111.16 1817.07 181.416ZM1857.31 241.792L1854.79 237.787C1844.18 220.923 1838.58 201.435 1838.59 181.424C1838.61 123.029 1886.14 75.52 1944.58 75.52C1972.88 75.532 1999.47 86.564 2019.48 106.58C2039.48 126.598 2050.49 153.208 2050.48 181.51C2050.45 239.905 2002.93 287.42 1944.54 287.42H1944.49C1925.48 287.41 1906.83 282.304 1890.57 272.655L1886.7 270.36L1846.6 280.873L1857.31 241.791V241.792Z" fill="url(#paint1_linear_29_17)"/>
<path d="M1912.68 128.148C1910.29 122.845 1907.78 122.738 1905.51 122.645C1903.65 122.565 1901.53 122.571 1899.41 122.571C1897.28 122.571 1893.83 123.37 1890.92 126.555C1888 129.743 1879.77 137.447 1879.77 153.116C1879.77 168.786 1891.18 183.929 1892.77 186.056C1894.36 188.179 1914.8 221.363 1947.18 234.129C1974.08 244.738 1979.56 242.628 1985.39 242.096C1991.23 241.566 2004.24 234.394 2006.89 226.957C2009.55 219.521 2009.55 213.147 2008.75 211.815C2007.95 210.488 2005.83 209.691 2002.65 208.099C1999.46 206.506 1983.8 198.801 1980.88 197.738C1977.96 196.676 1975.84 196.146 1973.72 199.335C1971.59 202.519 1965.49 209.691 1963.63 211.815C1961.78 213.944 1959.92 214.209 1956.73 212.616C1953.55 211.018 1943.29 207.659 1931.12 196.81C1921.65 188.368 1915.26 177.943 1913.4 174.754C1911.54 171.57 1913.2 169.844 1914.8 168.257C1916.23 166.83 1917.99 164.538 1919.58 162.679C1921.17 160.819 1921.7 159.492 1922.76 157.368C1923.82 155.242 1923.29 153.382 1922.5 151.789C1921.7 150.196 1915.51 134.445 1912.68 128.148Z" fill="white"/>
<path d="M798.064 141.168H808.432L832.24 217.584L830.064 231.536L798.064 141.168ZM855.408 138.352L856.432 148.72L833.904 217.328C833.904 217.328 833.691 218.096 833.264 219.632C832.837 221.083 832.411 222.917 831.984 225.136C831.557 227.269 831.301 229.403 831.216 231.536H830.064L827.76 220.144L854.256 138.352H855.408ZM855.408 138.48L882.288 213.872L879.472 231.536L851.056 152.304L855.408 138.48ZM907.376 141.168L883.44 217.328C883.44 217.328 883.227 218.096 882.8 219.632C882.373 221.168 881.904 223.045 881.392 225.264C880.965 227.397 880.709 229.488 880.624 231.536H879.472L877.936 218.864L900.208 141.168H907.376ZM897.776 149.616C898.459 147.056 898.245 145.093 897.136 143.728C896.027 142.363 894.619 141.68 892.912 141.68H891.76V140.4H916.976V141.68C916.976 141.68 916.805 141.68 916.464 141.68C916.123 141.68 915.952 141.68 915.952 141.68C913.989 141.68 911.856 142.32 909.552 143.6C907.248 144.795 905.627 146.8 904.688 149.616H897.776ZM811.12 149.616H801.008C799.984 146.8 798.32 144.795 796.016 143.6C793.797 142.32 791.707 141.68 789.744 141.68C789.744 141.68 789.573 141.68 789.232 141.68C788.891 141.68 788.72 141.68 788.72 141.68V140.4H817.136V141.68H815.984C814.363 141.68 812.912 142.363 811.632 143.728C810.437 145.093 810.267 147.056 811.12 149.616ZM991.491 153.2V230H983.299V153.2H991.491ZM936.067 153.2V230H927.875V153.2H936.067ZM984.579 190.192V194.032H934.659V190.192H984.579ZM928.259 221.808V230H918.915V228.72C918.915 228.72 919.171 228.72 919.683 228.72C920.195 228.72 920.451 228.72 920.451 228.72C922.499 228.72 924.206 228.037 925.571 226.672C927.022 225.307 927.79 223.685 927.875 221.808H928.259ZM935.683 221.808H936.067C936.067 223.685 936.792 225.307 938.243 226.672C939.694 228.037 941.443 228.72 943.491 228.72C943.491 228.72 943.747 228.72 944.259 228.72C944.771 228.72 945.027 228.72 945.027 228.72V230H935.683V221.808ZM935.683 161.392V153.2H945.027V154.48C945.027 154.48 944.771 154.48 944.259 154.48C943.747 154.48 943.491 154.48 943.491 154.48C941.443 154.48 939.694 155.163 938.243 156.528C936.792 157.808 936.067 159.429 936.067 161.392H935.683ZM928.259 161.392H927.875C927.79 159.429 927.022 157.808 925.571 156.528C924.206 155.163 922.499 154.48 920.451 154.48C920.451 154.48 920.195 154.48 919.683 154.48C919.171 154.48 918.915 154.48 918.915 154.48V153.2H928.259V161.392ZM983.683 221.808V230H974.339V228.72C974.339 228.72 974.595 228.72 975.107 228.72C975.619 228.72 975.875 228.72 975.875 228.72C977.923 228.72 979.63 228.037 980.995 226.672C982.446 225.307 983.214 223.685 983.299 221.808H983.683ZM991.107 221.808H991.491C991.576 223.685 992.302 225.307 993.667 226.672C995.118 228.037 996.867 228.72 998.915 228.72C998.915 228.72 999.171 228.72 999.683 228.72C1000.2 228.72 1000.45 228.72 1000.45 228.72V230H991.107V221.808ZM991.107 161.392V153.2H1000.45V154.48C1000.45 154.48 1000.2 154.48 999.683 154.48C999.171 154.48 998.915 154.48 998.915 154.48C996.867 154.48 995.118 155.163 993.667 156.528C992.302 157.808 991.576 159.429 991.491 161.392H991.107ZM983.683 161.392H983.299C983.214 159.429 982.446 157.808 980.995 156.528C979.63 155.163 977.923 154.48 975.875 154.48C975.875 154.48 975.619 154.48 975.107 154.48C974.595 154.48 974.339 154.48 974.339 154.48V153.2H983.683V161.392ZM1050.38 151.408L1085.58 229.232H1075.47L1048.21 162.8L1050.38 151.408ZM1025.68 220.656C1024.74 223.216 1024.87 225.221 1026.06 226.672C1027.26 228.037 1028.62 228.72 1030.16 228.72H1031.18V230H1006.73V228.72C1006.73 228.72 1006.91 228.72 1007.25 228.72C1007.59 228.72 1007.76 228.72 1007.76 228.72C1009.55 228.72 1011.39 228.123 1013.26 226.928C1015.14 225.648 1016.76 223.557 1018.13 220.656H1025.68ZM1050.38 151.408L1051.28 160.24L1021.97 229.616H1013.9L1044.24 164.592C1044.24 164.592 1044.45 164.08 1044.88 163.056C1045.39 162.032 1045.95 160.795 1046.54 159.344C1047.23 157.808 1047.82 156.315 1048.34 154.864C1048.85 153.413 1049.15 152.261 1049.23 151.408H1050.38ZM1065.49 200.176V204.016H1031.57V200.176H1065.49ZM1072.01 220.656H1081.74C1083.02 223.557 1084.6 225.648 1086.48 226.928C1088.36 228.123 1090.15 228.72 1091.86 228.72C1091.86 228.72 1092.03 228.72 1092.37 228.72C1092.71 228.72 1092.88 228.72 1092.88 228.72V230H1066.64V228.72H1067.66C1069.11 228.72 1070.44 228.037 1071.63 226.672C1072.83 225.221 1072.95 223.216 1072.01 220.656ZM1124.47 153.584V230H1116.15V153.584H1124.47ZM1155.44 153.072V156.912H1085.17V153.072H1155.44ZM1155.44 156.656V165.488H1154.03V163.44C1154.03 161.648 1153.44 160.155 1152.24 158.96C1151.13 157.68 1149.6 156.997 1147.63 156.912V156.656H1155.44ZM1155.44 151.024V154.352L1141.11 153.072C1142.81 153.072 1144.6 152.987 1146.48 152.816C1148.44 152.56 1150.24 152.261 1151.86 151.92C1153.48 151.579 1154.67 151.28 1155.44 151.024ZM1116.4 221.808V230H1107.06V228.72C1107.14 228.72 1107.4 228.72 1107.83 228.72C1108.34 228.72 1108.59 228.72 1108.59 228.72C1110.64 228.72 1112.39 228.037 1113.84 226.672C1115.29 225.307 1116.06 223.685 1116.15 221.808H1116.4ZM1124.08 221.808H1124.47C1124.55 223.685 1125.32 225.307 1126.77 226.672C1128.22 228.037 1129.97 228.72 1132.02 228.72C1132.02 228.72 1132.23 228.72 1132.66 228.72C1133.17 228.72 1133.43 228.72 1133.43 228.72V230H1124.08V221.808ZM1092.98 156.656V156.912C1091.02 156.997 1089.44 157.68 1088.24 158.96C1087.13 160.155 1086.58 161.648 1086.58 163.44V165.488H1085.17V156.656H1092.98ZM1085.17 151.024C1085.94 151.28 1087.09 151.579 1088.63 151.92C1090.25 152.261 1092.04 152.56 1094 152.816C1095.96 152.987 1097.8 153.072 1099.51 153.072L1085.17 154.352V151.024ZM1187.2 151.408C1189.59 151.408 1191.68 151.493 1193.47 151.664C1195.27 151.835 1196.8 152.048 1198.08 152.304C1199.45 152.475 1200.6 152.731 1201.54 153.072C1202.56 153.328 1203.46 153.584 1204.23 153.84L1204.35 166.512H1202.82C1202.82 163.013 1201.62 160.283 1199.23 158.32C1196.84 156.272 1193.13 155.248 1188.1 155.248C1183.83 155.248 1180.16 156.443 1177.09 158.832C1174.1 161.136 1172.65 163.995 1172.74 167.408C1172.74 168.517 1172.87 169.669 1173.12 170.864C1173.46 171.973 1173.98 173.083 1174.66 174.192C1175.43 175.301 1176.45 176.411 1177.73 177.52L1203.59 197.488C1205.55 199.109 1207 201.2 1207.94 203.76C1208.88 206.235 1209.39 208.709 1209.47 211.184C1209.56 214.939 1208.58 218.395 1206.53 221.552C1204.48 224.709 1201.71 227.227 1198.21 229.104C1194.8 230.896 1191 231.792 1186.82 231.792C1184.34 231.792 1181.66 231.579 1178.75 231.152C1175.94 230.725 1173.29 230.085 1170.82 229.232C1168.34 228.293 1166.3 227.141 1164.67 225.776C1164.42 224.581 1164.29 223.088 1164.29 221.296C1164.29 219.419 1164.42 217.456 1164.67 215.408C1165.02 213.36 1165.44 211.525 1165.95 209.904H1167.49C1167.15 213.744 1167.7 217.029 1169.15 219.76C1170.6 222.491 1172.74 224.581 1175.55 226.032C1178.37 227.397 1181.66 228.037 1185.41 227.952C1190.7 227.781 1194.84 226.459 1197.83 223.984C1200.9 221.424 1202.43 218.053 1202.43 213.872C1202.43 211.824 1202.05 209.989 1201.28 208.368C1200.6 206.661 1199.45 205.083 1197.83 203.632L1172.23 183.92C1169.84 181.872 1168.22 179.611 1167.36 177.136C1166.51 174.661 1166.08 172.315 1166.08 170.096C1166.08 166.597 1167.02 163.44 1168.9 160.624C1170.78 157.808 1173.29 155.589 1176.45 153.968C1179.69 152.261 1183.28 151.408 1187.2 151.408ZM1204.1 152.56L1204.23 154.864H1195.14V152.56H1204.1ZM1262.33 138.608L1300.22 229.232H1289.34L1259.77 150.768L1262.33 138.608ZM1234.81 220.656C1234.21 222.363 1234.12 223.813 1234.55 225.008C1234.98 226.203 1235.66 227.141 1236.6 227.824C1237.62 228.421 1238.65 228.72 1239.67 228.72H1240.82V230H1215.09V228.72C1215.09 228.72 1215.31 228.72 1215.73 228.72C1216.08 228.72 1216.25 228.72 1216.25 228.72C1218.21 228.72 1220.22 228.123 1222.26 226.928C1224.4 225.648 1226.15 223.557 1227.51 220.656H1234.81ZM1262.33 138.608L1263.48 147.568L1231.35 229.616H1223.67L1256.44 151.792C1256.44 151.792 1256.65 151.28 1257.08 150.256C1257.59 149.147 1258.15 147.824 1258.74 146.288C1259.43 144.752 1259.98 143.259 1260.41 141.808C1260.92 140.357 1261.18 139.291 1261.18 138.608H1262.33ZM1280.38 195.056V198.896H1240.31V195.056H1280.38ZM1286.14 220.656H1296.63C1297.91 223.557 1299.62 225.648 1301.75 226.928C1303.88 228.123 1305.93 228.72 1307.9 228.72C1307.9 228.72 1308.07 228.72 1308.41 228.72C1308.75 228.72 1308.92 228.72 1308.92 228.72V230H1280.12V228.72H1281.27C1282.89 228.72 1284.34 228.037 1285.62 226.672C1286.9 225.221 1287.07 223.216 1286.14 220.656ZM1330.28 153.2H1344.49C1350.47 153.2 1355.63 154.096 1359.98 155.888C1364.33 157.595 1367.7 160.112 1370.09 163.44C1372.48 166.683 1373.68 170.565 1373.68 175.088C1373.68 179.952 1372.57 184.133 1370.35 187.632C1368.21 191.045 1365.36 193.691 1361.77 195.568C1358.19 197.36 1354.22 198.256 1349.87 198.256C1345.52 198.171 1341.16 197.061 1336.81 194.928V193.648C1336.81 193.648 1337.49 193.776 1338.86 194.032C1340.31 194.288 1342.15 194.416 1344.36 194.416C1346.58 194.331 1348.93 193.947 1351.4 193.264C1353.88 192.496 1356.18 191.131 1358.32 189.168C1360.53 187.205 1362.28 184.389 1363.56 180.72C1363.91 179.781 1364.12 178.672 1364.2 177.392C1364.37 176.112 1364.46 174.917 1364.46 173.808C1364.46 168.603 1362.67 164.507 1359.08 161.52C1355.5 158.533 1350.55 157.04 1344.24 157.04H1331.69C1331.69 157.04 1331.56 156.741 1331.31 156.144C1331.14 155.461 1330.92 154.821 1330.67 154.224C1330.41 153.541 1330.28 153.2 1330.28 153.2ZM1331.95 153.2V230H1323.76V153.2H1331.95ZM1324.01 221.808L1325.68 230H1314.54V228.72C1314.54 228.72 1314.84 228.72 1315.44 228.72C1316.03 228.72 1316.33 228.72 1316.33 228.72C1318.38 228.72 1320.09 228.037 1321.45 226.672C1322.9 225.307 1323.67 223.685 1323.76 221.808H1324.01ZM1324.01 161.264H1323.76C1323.67 159.301 1322.9 157.68 1321.45 156.4C1320.09 155.12 1318.38 154.48 1316.33 154.48C1316.33 154.48 1316.03 154.48 1315.44 154.48C1314.84 154.48 1314.54 154.48 1314.54 154.48V153.2H1325.68L1324.01 161.264ZM1331.56 221.808H1331.82C1331.91 223.685 1332.63 225.307 1334 226.672C1335.45 228.037 1337.2 228.72 1339.24 228.72C1339.33 228.72 1339.63 228.72 1340.14 228.72C1340.74 228.72 1341.04 228.72 1341.04 228.72V230H1329.9L1331.56 221.808ZM1401.03 153.2H1415.24C1421.22 153.2 1426.38 154.096 1430.73 155.888C1435.08 157.595 1438.45 160.112 1440.84 163.44C1443.23 166.683 1444.43 170.565 1444.43 175.088C1444.43 179.952 1443.32 184.133 1441.1 187.632C1438.96 191.045 1436.11 193.691 1432.52 195.568C1428.94 197.36 1424.97 198.256 1420.62 198.256C1416.27 198.171 1411.91 197.061 1407.56 194.928V193.648C1407.56 193.648 1408.24 193.776 1409.61 194.032C1411.06 194.288 1412.9 194.416 1415.11 194.416C1417.33 194.331 1419.68 193.947 1422.15 193.264C1424.63 192.496 1426.93 191.131 1429.07 189.168C1431.28 187.205 1433.03 184.389 1434.31 180.72C1434.66 179.781 1434.87 178.672 1434.95 177.392C1435.12 176.112 1435.21 174.917 1435.21 173.808C1435.21 168.603 1433.42 164.507 1429.83 161.52C1426.25 158.533 1421.3 157.04 1414.99 157.04H1402.44C1402.44 157.04 1402.31 156.741 1402.06 156.144C1401.89 155.461 1401.67 154.821 1401.42 154.224C1401.16 153.541 1401.03 153.2 1401.03 153.2ZM1402.7 153.2V230H1394.51V153.2H1402.7ZM1394.76 221.808L1396.43 230H1385.29V228.72C1385.29 228.72 1385.59 228.72 1386.19 228.72C1386.78 228.72 1387.08 228.72 1387.08 228.72C1389.13 228.72 1390.84 228.037 1392.2 226.672C1393.65 225.307 1394.42 223.685 1394.51 221.808H1394.76ZM1394.76 161.264H1394.51C1394.42 159.301 1393.65 157.68 1392.2 156.4C1390.84 155.12 1389.13 154.48 1387.08 154.48C1387.08 154.48 1386.78 154.48 1386.19 154.48C1385.59 154.48 1385.29 154.48 1385.29 154.48V153.2H1396.43L1394.76 161.264ZM1402.31 221.808H1402.57C1402.66 223.685 1403.38 225.307 1404.75 226.672C1406.2 228.037 1407.95 228.72 1409.99 228.72C1410.08 228.72 1410.38 228.72 1410.89 228.72C1411.49 228.72 1411.79 228.72 1411.79 228.72V230H1400.65L1402.31 221.808Z" fill="black"/>
<defs>
<filter id="filter0_d_29_17" x="0" y="0" width="2163" height="373" filterUnits="userSpaceOnUse" color-interpolation-filters="sRGB">
<feFlood flood-opacity="0" result="BackgroundImageFix"/>
<feColorMatrix in="SourceAlpha" type="matrix" values="0 0 0 0 0 0 0 0 0 0 0 0 0 0 0 0 0 0 127 0" result="hardAlpha"/>
<feOffset dy="4"/>
<feGaussianBlur stdDeviation="2"/>
<feComposite in2="hardAlpha" operator="out"/>
<feColorMatrix type="matrix" values="0 0 0 0 0 0 0 0 0 0 0 0 0 0 0 0 0 0 0.25 0"/>
<feBlend mode="normal" in2="BackgroundImageFix" result="effect1_dropShadow_29_17"/>
<feBlend mode="normal" in="SourceGraphic" in2="effect1_dropShadow_29_17" result="shape"/>
</filter>
<linearGradient id="paint0_linear_29_17" x1="14177.1" y1="24883" x2="14177.1" y2="58.452" gradientUnits="userSpaceOnUse">
<stop stop-color="#1FAF38"/>
<stop offset="1" stop-color="#60D669"/>
</linearGradient>
<linearGradient id="paint1_linear_29_17" x1="14616" y1="25768.7" x2="14616" y2="54" gradientUnits="userSpaceOnUse">
<stop stop-color="#F9F9F9"/>
<stop offset="1" stop-color="white"/>
</linearGradient>
</defs>
</svg>
